<?xml version="1.0" encoding="iso-8859-1"?>
<!-- Generator: Adobe Illustrator 19.0.0, SVG Export Plug-In . SVG Version: 6.00 Build 0)  -->
<svg version="1.1" id="Capa_1" xmlns="http://www.w3.org/2000/svg" xmlns:xlink="http://www.w3.org/1999/xlink" x="0px" y="0px"
	 viewBox="0 0 512.272 512.272" style="enable-background:new 0 0 512.272 512.272;" xml:space="preserve">
<rect x="373.446" y="152.669" style="fill:#E8EAE9;" width="61.867" height="108.8"/>
<g>
	<path style="fill:#66C6B9;" d="M380.912,261.469c18.133-12.8,36.267,3.2,54.4-25.6v-21.333c-20.267,33.067-41.6,7.467-61.867,32
		v13.867h7.467V261.469z"/>
	<path style="fill:#66C6B9;" d="M389.446,152.669c-5.333,1.067-10.667,4.267-16,10.667v21.333c20.267-24.533,41.6,0,61.867-32
		L389.446,152.669L389.446,152.669z"/>
	<path style="fill:#66C6B9;" d="M436.379,172.936c-20.267,33.067-41.6,7.467-61.867,32v21.333c20.267-24.533,41.6,1.067,61.867-32
		V172.936z"/>
</g>
<path style="fill:#FFD15C;" d="M427.846,120.669c0-12.8-22.4-49.067-22.4-49.067s-22.4,36.267-22.4,49.067s10.667,22.4,22.4,22.4
	S427.846,133.469,427.846,120.669z"/>
<path style="fill:#F3705A;" d="M418.246,130.269c0-7.467-12.8-27.733-12.8-27.733s-12.8,21.333-12.8,27.733
	c0,7.467,5.333,12.8,12.8,12.8C411.846,143.069,418.246,137.736,418.246,130.269z"/>
<rect x="225.179" y="81.203" style="fill:#E8EAE9;" width="61.867" height="180.267"/>
<g>
	<path style="fill:#66C6B9;" d="M287.046,143.069c-20.267,33.067-41.6,7.467-61.867,32v21.333c20.267-24.533,41.6,1.067,61.867-32
		V143.069L287.046,143.069z"/>
	<path style="fill:#66C6B9;" d="M287.046,185.736c-20.267,33.067-41.6,7.467-61.867,32v21.333c20.267-24.533,41.6,1.067,61.867-32
		V185.736L287.046,185.736z"/>
	<path style="fill:#66C6B9;" d="M274.246,261.469c4.267-3.2,8.533-7.467,12.8-13.867v-21.333c-20.267,33.067-41.6,7.467-61.867,32
		v2.133h49.067V261.469z"/>
	<path style="fill:#66C6B9;" d="M241.179,81.203c-5.333,2.133-10.667,4.267-16,10.667v21.333c20.267-24.533,41.6,0,61.867-32
		C287.046,81.203,241.179,81.203,241.179,81.203z"/>
	<path style="fill:#66C6B9;" d="M287.046,101.469c-20.267,33.067-41.6,7.467-61.867,32v21.333c20.267-24.533,41.6,1.067,61.867-32
		V101.469L287.046,101.469z"/>
</g>
<path style="fill:#FFD15C;" d="M278.512,49.203c0-12.8-22.4-49.067-22.4-49.067s-22.4,36.267-22.4,49.067s10.667,22.4,22.4,22.4
	C268.912,71.603,278.512,62.003,278.512,49.203z"/>
<path style="fill:#F3705A;" d="M268.912,58.803c0-7.467-12.8-27.733-12.8-27.733s-12.8,21.333-12.8,27.733
	c0,7.467,5.333,12.8,12.8,12.8S268.912,66.269,268.912,58.803z"/>
<rect x="75.846" y="152.669" style="fill:#E8EAE9;" width="61.867" height="108.8"/>
<g>
	<path style="fill:#66C6B9;" d="M83.312,261.469c18.133-12.8,36.267,3.2,54.4-25.6v-21.333c-20.267,33.067-41.6,7.467-61.867,32
		v13.867h7.467V261.469z"/>
	<path style="fill:#66C6B9;" d="M91.846,152.669c-5.333,1.067-10.667,4.267-16,10.667v21.333c20.267-24.533,41.6,0,61.867-32
		L91.846,152.669L91.846,152.669z"/>
	<path style="fill:#66C6B9;" d="M138.779,172.936c-20.267,33.067-41.6,7.467-61.867,32v21.333c20.267-24.533,41.6,1.067,61.867-32
		V172.936z"/>
</g>
<path style="fill:#FFD15C;" d="M130.246,120.669c0-12.8-22.4-49.067-22.4-49.067s-22.4,36.267-22.4,49.067s10.667,22.4,22.4,22.4
	C119.579,143.069,130.246,133.469,130.246,120.669z"/>
<path style="fill:#F3705A;" d="M120.646,130.269c0-7.467-12.8-27.733-12.8-27.733s-12.8,21.333-12.8,27.733
	c0,7.467,5.333,12.8,12.8,12.8C114.246,143.069,120.646,137.736,120.646,130.269z"/>
<path style="fill:#FFD15C;" d="M506.779,512.136H11.846V273.203c0-18.133,14.933-33.067,33.067-33.067h427.733
	c18.133,0,33.067,14.933,33.067,33.067v238.933H506.779z"/>
<path style="fill:#344A5E;" d="M4.379,329.736l45.867-33.067c121.6-11.733,244.267-4.267,362.667,23.467c28.8,6.4,60.8-32,80-9.6
	c17.067,20.267,19.2,74.667,16,115.2c-2.133,24.533-28.8,37.333-49.067,23.467c-5.333-4.267-10.667-7.467-13.867-7.467
	c-34.133-9.6-66.133,21.333-101.333,23.467c-27.733,2.133-54.4-10.667-80-22.4c-25.6-10.667-54.4-20.267-81.067-11.733
	c-23.467,7.467-44.8,29.867-69.333,24.533c-22.4-4.267-38.4-30.933-60.8-29.867c-13.867,1.067-27.733,12.8-39.467,6.4
	c-9.6-5.333-10.667-18.133-9.6-28.8L4.379,329.736L4.379,329.736z"/>
<path style="fill:#415A6B;" d="M509.979,369.203c-2.133,29.867-52.267,36.267-76.8,21.333c-13.867-8.533-25.6-23.467-41.6-22.4
	c-14.933,1.067-25.6,16-38.4,24.533c-16,10.667-36.267,10.667-54.4,6.4c-18.133-4.267-36.267-11.733-54.4-17.067
	c-18.133-5.333-25.6-7.467-44.8-8.533c-6.4-1.067-12.8-1.067-19.2-2.133c-13.867-1.067-26.667-3.2-40.533,0
	c-18.133,3.2-32,13.867-49.067,6.4c-11.733-5.333-19.2-17.067-32-20.267c-11.733-2.133-26.667,25.6-45.867,18.133
	c-17.067-12.8-27.733-146.133,38.4-146.133c75.733,0,400,0,400,0C492.912,229.469,520.646,240.136,509.979,369.203z"/>
<g>
</g>
<g>
</g>
<g>
</g>
<g>
</g>
<g>
</g>
<g>
</g>
<g>
</g>
<g>
</g>
<g>
</g>
<g>
</g>
<g>
</g>
<g>
</g>
<g>
</g>
<g>
</g>
<g>
</g>
</svg>
